<?xml version="1.0" standalone="no"?>
<!DOCTYPE svg PUBLIC "-//W3C//DTD SVG 20010904//EN"
 "http://www.w3.org/TR/2001/REC-SVG-20010904/DTD/svg10.dtd">
<svg version="1.0" xmlns="http://www.w3.org/2000/svg"
 width="700.000000pt" height="700.000000pt" viewBox="0 0 700.000000 700.000000"
 preserveAspectRatio="xMidYMid meet">
<metadata>
Created by potrace 1.14, written by Peter Selinger 2001-2017
</metadata>
<g transform="translate(0.000000,700.000000) scale(0.100000,-0.100000)"
fill="#000000" stroke="none">
<path d="M1457 5834 c-1 -1 -38 -4 -82 -7 -129 -10 -243 -47 -370 -121 -82
-48 -225 -186 -280 -270 -44 -68 -97 -189 -114 -261 -6 -27 -14 -61 -18 -75
-9 -39 -11 -1326 -1 -1414 41 -386 359 -707 752 -759 69 -9 600 -12 2191 -11
2344 1 2167 -4 2345 71 279 119 471 361 523 664 10 56 13 237 11 754 -1 649
-2 683 -22 755 -30 112 -56 173 -108 257 -109 175 -271 303 -469 371 -60 21
-77 25 -164 38 -35 6 -4187 13 -4194 8z m4187 -604 c71 -27 129 -83 163 -156
l27 -58 0 -631 c0 -724 1 -708 -83 -792 -79 -79 -108 -87 -318 -91 l-183 -4 0
319 c0 358 -7 412 -64 528 -41 83 -137 189 -212 234 -68 41 -121 60 -219 80
-22 4 -600 7 -1285 7 -1050 -1 -1249 -3 -1270 -15 -14 -8 -27 -14 -30 -13 -18
6 -121 -41 -169 -76 -64 -46 -146 -138 -179 -200 -65 -121 -72 -177 -72 -539
l0 -325 -182 4 c-162 3 -188 5 -228 24 -49 24 -95 63 -127 109 -46 67 -48 100
-47 762 l1 622 32 65 c37 75 89 121 165 148 48 16 172 17 2138 18 2078 0 2088
0 2142 -20z m-983 -1149 c3 -1 5 -131 5 -291 l0 -290 -1166 0 -1166 0 1 293
c1 160 3 292 4 292 383 0 2318 -3 2322 -4z"/>
<path d="M2277 2619 c-133 -30 -227 -140 -233 -274 -3 -52 -9 -99 -19 -155 -7
-35 -48 -125 -79 -173 -102 -159 -258 -248 -466 -267 -155 -13 -234 -60 -284
-171 -71 -155 5 -337 166 -395 95 -34 313 -11 488 52 465 166 780 616 773
1100 -3 180 -175 321 -346 283z"/>
<path d="M3449 2620 c-88 -15 -163 -71 -207 -154 l-27 -51 0 -665 c0 -755 -6
-702 86 -791 151 -148 406 -87 473 114 14 42 16 126 16 675 0 427 -4 640 -11
667 -39 139 -184 229 -330 205z"/>
<path d="M4607 2618 c-138 -29 -228 -146 -230 -297 -3 -332 165 -682 429 -892
156 -124 362 -219 534 -245 19 -3 46 -7 60 -9 14 -3 61 -5 106 -6 114 -2 174
20 240 85 91 92 111 216 54 332 -51 104 -146 161 -275 165 -189 6 -373 110
-475 268 -38 61 -77 164 -84 226 -3 28 -8 77 -11 110 -12 112 -62 188 -157
234 -67 33 -128 42 -191 29z"/>
</g>
</svg>
